<?xml version="1.0" encoding="utf-8"?>
<!-- Generator: Adobe Illustrator 17.1.0, SVG Export Plug-In . SVG Version: 6.00 Build 0)  -->
<!DOCTYPE svg PUBLIC "-//W3C//DTD SVG 1.1//EN" "http://www.w3.org/Graphics/SVG/1.1/DTD/svg11.dtd">
<svg version="1.1" id="Layer_2" xmlns="http://www.w3.org/2000/svg" xmlns:xlink="http://www.w3.org/1999/xlink" x="0px" y="0px"
	 viewBox="0 0 329.845 329.845" enable-background="new 0 0 329.845 329.845" xml:space="preserve">
<circle fill="#707070" cx="164.922" cy="164.922" r="164.922"/>
<path fill="#FFFFFF" d="M141.839,109.539c0,0-14.653-73.047-17.059-76.984c0,0-1.968-6.998,6.124-8.092c0,0,6.342-1.531,9.404,4.593
	l11.373,75.234c0,0,60.144-32.587,66.048-38.273c0,0,3.718-2.576,13.778,0.899c0,0,9.842,7.63,1.312,10.473
	c0,0-69.985,31.931-76.109,38.273c0,0,5.249,15.747,1.531,20.339c0,0,8.967,10.279,3.937,15.965l-1.094,1.968
	c0,0,9.186,37.399,9.842,39.804c0,0,1.75,10.498-4.811,12.466c0,0-8.311,2.843-9.623-10.279l-1.75-15.528
	c0,0-2.406-1.094-4.155,7.436c0,0-1.22,8.02-3.194,9.427c-0.426,0.304-0.746,0.733-0.763,1.256
	c-0.077,2.425-0.441,8.153-2.167,7.948c0,0,7.217,7.395,10.279,12.425c0,0,4.811-11.591,18.59-7.655c0,0,10.279-11.591,16.84-12.904
	c0,0,3.937,0,2.624-3.499c0,0,3.937-10.716,13.56-8.311l5.03,9.842l85.513,22.526c0,0,4.613-10.969,6.358,0.375l3.504,4.074
	l-5.22-1.412c-0.291,0.146-0.53,0.369-0.689,0.653c-0.579,1.031-2.397,3.388-5.483-0.41l-84.42-22.308c0,0-4.811,7.655-10.279,7.217
	c0,0-3.937,8.748-8.311,5.686c0,0-7.873,10.716-13.56,13.122l-12.685,13.122l-0.875,5.249l-7.655,9.404
	c0,0,8.529,14.872-3.937,24.495c0,0-11.406,3.772-14.872-0.437c-0.515-0.625-4.739-4.756-5.249-5.468l-2.624-10.716
	c0,0-19.027,7.436-35.211-32.806c0,0-6.999-13.56-7.873-28.431c0,0,1.968-13.997,4.374-18.371l-61.456-33.243
	c0,0-7.217,5.686-5.468-1.312l-2.187-5.03l4.593-0.656c0,0,5.249-9.186,5.468,4.155l22.526,11.963c0,0-0.875-9.12,9.842-11.744
	C65.511,146.062,139.652,113.038,141.839,109.539z M137.708,156.123c-0.194-2.187,1.725-9.404,1.725-9.404
	c-5.905-0.656,3.937-10.716,3.937-10.716l-2.187-6.124l-6.561,5.905c1.968,7.655-2.187,22.964-2.187,22.964
	c-0.875,5.468,0,12.466,0,12.466C131.56,162.465,137.708,156.123,137.708,156.123z M106.774,169.922
	c0.215-1.114,0.743-2.73,2.042-3.93c0.525-0.484,0.663-1.255,0.345-1.894c-0.764-1.535-1.582-5.445-0.785-15.412
	c0,0-5.905,1.094-1.75-7.436c0,0-34.118,15.091-40.679,20.558l26.901,14.216c0,0,5.238-4.462,12.425-4.798
	C106.013,171.192,106.635,170.649,106.774,169.922z"/>
</svg>
